# xmcd
#
# Track frame offsets: 
#        150
#        16068
#        35781
#        65671
#        86758
#        111538
#        131471
#        157749
#        176535
#        198203
#        219144
#        234303
#        255603
#        271705
#        302296
#        323953
#
# Disc length: 4543 seconds
#
# Revision: 0
# Processed by: cddbd v1.5.2PL0 Copyright (c) Steve Scherf et al.
# Submitted via: ExactAudioCopy v1.3
#
DISCID=cc11bd10
DTITLE=Derringer - Derringer and Sweet Evil
DYEAR=2004
DGENRE=Blues Rock
TTITLE0=Let Me In
TTITLE1=You Can Have Me
TTITLE2=Loosen Up Your Grip
TTITLE3=Envy
TTITLE4=Comes A Woman
TTITLE5=Sailor
TTITLE6=Beyond The Universe
TTITLE7=Goodbye Again
TTITLE8=Don't Stop Loving Me
TTITLE9=Sittin By The Pool
TTITLE10=Keep On Making Love
TTITLE11=One Eyed Jack
TTITLE12=Let's Make It
TTITLE13=Sweet Evil
TTITLE14=Drivin Sideways
TTITLE15=I Did'nt Ask To Born
EXTD=
EXTT0=
EXTT1=
EXTT2=
EXTT3=
EXTT4=
EXTT5=
EXTT6=
EXTT7=
EXTT8=
EXTT9=
EXTT10=
EXTT11=
EXTT12=
EXTT13=
EXTT14=
EXTT15=
PLAYORDER=
